<?xml version="1.0" standalone="no"?>
<svg version="1.0" xmlns="http://www.w3.org/2000/svg"
 width="1280.000000pt" height="640.000000pt" viewBox="0 0 1280.000000 640.000000"
 preserveAspectRatio="xMidYMid meet">
<metadata>
Created by potrace 1.15, written by Peter Selinger 2001-2017
</metadata>
<g transform="translate(0.000000,640.000000) scale(0.100000,-0.100000)"
fill="#c7dcf0" stroke="none">
<path d="M9555 6020 c-456 -39 -878 -150 -1313 -344 -237 -106 -377 -185 -612
-344 -430 -292 -630 -483 -1050 -1002 -252 -312 -509 -594 -635 -698 -44 -37
-166 -143 -270 -237 -454 -406 -642 -555 -1040 -824 -286 -193 -739 -398 -930
-421 -132 -16 -210 -31 -290 -55 -44 -13 -159 -43 -255 -66 -189 -45 -557
-137 -872 -218 -109 -28 -285 -73 -390 -100 -106 -28 -292 -75 -413 -106 -337
-87 -932 -234 -1040 -257 -27 -6 -121 -11 -207 -12 l-157 -1 -30 -30 c-60 -56
-64 -150 -15 -353 33 -139 98 -338 124 -380 25 -41 81 -66 130 -59 19 3 91 35
160 71 136 70 169 80 710 226 168 45 350 95 405 110 55 15 186 51 290 80 105
28 226 63 270 78 44 14 84 25 89 24 4 -2 14 3 22 9 8 6 14 9 14 6 0 -5 172 38
353 87 31 9 81 23 111 31 30 8 195 55 368 104 393 112 505 141 522 135 16 -6
214 57 247 80 94 61 621 115 929 95 464 -29 891 -99 1545 -253 83 -19 181 -40
220 -46 108 -17 567 -175 925 -318 543 -216 747 -272 1219 -334 223 -29 690
-32 911 -5 605 73 1128 245 1544 508 44 28 64 35 73 27 9 -7 10 -15 2 -29 -8
-15 -6 -19 6 -19 9 0 13 -4 10 -10 -3 -5 -2 -10 4 -10 5 0 11 -12 13 -27 2
-16 8 -27 15 -26 7 2 10 -4 7 -12 -4 -10 0 -15 11 -15 9 0 15 -5 13 -12 -3 -7
7 -25 21 -41 14 -16 25 -33 24 -38 -2 -5 1 -9 6 -9 5 0 13 -9 16 -20 4 -11 11
-18 16 -15 5 4 14 -5 20 -19 7 -14 15 -23 19 -21 4 3 15 -4 25 -15 10 -11 24
-20 31 -20 8 0 11 -6 7 -17 -4 -11 -3 -14 5 -9 6 4 26 -7 43 -24 18 -16 36
-30 41 -30 5 0 19 -9 30 -20 13 -11 29 -18 39 -15 10 3 20 1 23 -4 4 -6 13 -8
21 -4 8 3 15 0 15 -5 0 -6 14 -18 32 -26 25 -13 33 -14 40 -4 6 10 8 10 8 0 0
-9 7 -11 21 -7 14 5 19 3 15 -4 -5 -7 6 -9 34 -7 22 2 40 0 40 -5 0 -9 120 -6
136 4 6 3 39 7 73 8 41 1 65 7 68 15 2 7 11 10 19 7 8 -3 23 2 34 12 12 11 26
14 39 10 15 -5 21 -2 21 9 0 9 7 16 15 16 9 0 28 9 44 21 15 11 34 21 42 23 8
1 25 12 39 23 77 67 99 83 109 83 6 0 11 7 11 15 0 7 6 18 13 22 6 4 25 26 42
48 16 22 31 42 35 45 3 3 24 43 47 90 64 129 78 192 78 350 0 144 -14 221 -62
329 -73 165 -251 342 -400 397 -75 27 -76 29 -42 84 106 172 226 498 267 725
6 33 17 92 24 130 9 46 13 161 13 340 -1 290 -11 383 -71 620 -108 430 -339
843 -636 1137 -333 329 -780 568 -1338 715 -122 33 -153 37 -325 44 -383 15
-532 17 -630 9z m404 -206 c24 -5 31 -12 31 -30 0 -16 7 -25 24 -30 21 -5 27
-20 56 -140 17 -75 30 -138 27 -140 -9 -9 -228 -65 -239 -62 -9 3 -97 311 -98
341 0 4 9 7 20 7 16 0 18 4 10 24 -5 13 -6 27 -3 30 8 8 132 8 172 0z m-274
-33 c4 -20 13 -31 28 -33 18 -3 26 -23 64 -168 24 -91 41 -169 40 -174 -3 -9
-168 -59 -173 -53 -1 1 -24 89 -52 195 -46 178 -49 192 -31 192 16 0 18 5 13
26 -8 33 7 44 63 44 38 0 42 -3 48 -29z m557 13 c3 -3 9 -17 13 -34 4 -19 13
-30 28 -32 18 -3 24 -18 44 -97 13 -52 22 -95 20 -96 -7 -6 -212 -53 -215 -50
-2 2 -19 62 -37 134 -31 126 -32 131 -13 131 17 0 19 5 13 31 l-7 30 74 -7
c40 -3 76 -8 80 -10z m-772 -34 c4 -18 12 -24 26 -22 17 2 25 -18 68 -185 27
-104 51 -193 53 -199 3 -9 -145 -54 -181 -54 -9 0 -31 67 -65 202 -47 181 -51
202 -36 210 12 7 15 17 10 38 -6 27 -4 29 32 33 71 8 87 4 93 -23z m1018 -7
c62 -13 72 -18 72 -37 0 -25 8 -37 35 -52 11 -6 20 -22 20 -34 0 -21 -10 -26
-105 -52 -58 -15 -112 -28 -121 -28 -12 0 -21 22 -36 83 -18 78 -18 82 -1 85
13 3 16 10 12 31 -7 33 -11 32 124 4z m-1243 -23 c5 -24 11 -30 25 -25 15 5
21 -1 29 -32 73 -278 98 -383 93 -387 -19 -12 -168 -44 -173 -38 -6 6 -92 330
-107 399 -3 15 1 25 12 29 13 5 15 14 11 35 -6 26 -4 28 32 34 21 4 43 8 48
10 20 7 24 4 30 -25z m-209 -46 c5 -19 12 -24 25 -21 15 4 21 -3 28 -31 5 -21
30 -117 56 -216 25 -98 44 -180 43 -182 -6 -5 -153 -44 -169 -44 -13 0 -28 45
-70 215 -50 196 -53 215 -37 221 13 4 16 12 12 33 -5 24 -2 29 28 38 57 19 77
16 84 -13z m1702 -5 c-7 -4 -24 -9 -38 -11 -19 -2 -26 2 -28 18 -3 20 -1 21
38 11 24 -7 35 -14 28 -18z m-1914 -44 c4 -16 13 -25 26 -25 22 0 16 16 84
-253 30 -124 41 -180 33 -183 -60 -22 -149 -40 -152 -30 -2 6 -24 97 -49 201
-26 105 -49 198 -52 207 -3 10 2 19 15 23 16 5 18 11 11 35 -8 27 -6 29 28 38
21 6 40 10 43 11 4 1 10 -10 13 -24z m1853 9 c13 -4 20 -10 17 -15 -9 -14 -41
-10 -48 6 -6 16 -2 18 31 9z m244 -54 c4 -19 18 -42 32 -52 19 -14 30 -37 43
-93 10 -41 15 -77 12 -80 -7 -7 -270 -76 -274 -72 -1 1 -19 67 -39 146 -29
115 -33 146 -23 152 25 16 83 22 120 12 31 -8 44 -7 71 7 42 23 50 20 58 -20z
m-2277 -16 c5 -18 11 -24 24 -20 15 5 24 -22 71 -209 29 -119 52 -217 50 -219
-8 -6 -221 -58 -224 -54 -2 1 -28 94 -58 205 -49 184 -52 203 -36 208 12 4 16
15 15 38 -1 30 2 33 59 54 79 29 91 28 99 -3z m2026 -145 l37 -147 -124 -32
c-68 -18 -125 -31 -127 -29 -4 5 -75 293 -73 295 7 6 225 62 236 61 10 -2 26
-48 51 -148z m548 33 c1 -5 -12 -12 -29 -16 -31 -6 -32 -7 -13 -20 22 -16 20
-17 -56 -36 -25 -6 -52 -13 -61 -16 -13 -4 -20 9 -33 60 -20 81 -20 79 3 71
18 -5 19 -3 10 27 -5 18 -9 34 -9 36 0 8 184 -96 188 -106z m-2832 23 c5 -19
11 -24 25 -20 14 5 20 -2 28 -32 76 -283 98 -368 96 -371 -6 -7 -176 -48 -179
-43 -2 3 -25 89 -52 190 -43 165 -46 184 -32 195 11 8 14 21 11 39 -5 24 -1
29 38 47 56 25 57 25 65 -5z m2006 -122 c20 -82 35 -149 33 -151 -1 -2 -50
-16 -109 -32 l-106 -28 -9 36 c-32 121 -61 242 -61 254 0 9 35 23 98 39 53 15
102 27 108 28 6 0 27 -65 46 -146z m-246 -63 c18 -74 33 -140 34 -145 0 -8
-241 -79 -245 -72 -8 13 -75 290 -71 294 9 9 211 62 230 60 16 -2 25 -24 52
-137z m-1956 88 c0 -12 7 -17 21 -15 20 2 26 -13 71 -182 27 -101 48 -184 46
-186 -6 -4 -202 -54 -204 -52 -1 1 -23 76 -47 167 -42 157 -44 166 -26 178 14
11 16 19 8 39 -5 14 -8 27 -7 28 2 2 30 16 63 33 61 30 75 29 75 -10z m3065
-12 c19 -14 50 -11 73 7 19 15 49 -17 56 -61 3 -24 17 -49 36 -67 18 -17 30
-39 30 -54 0 -25 -6 -27 -158 -65 -86 -22 -162 -41 -168 -43 -7 -3 -23 45 -43
123 -17 69 -30 127 -29 129 6 4 154 43 169 44 8 0 24 -5 34 -13z m-1384 -156
c21 -79 37 -145 36 -146 -15 -10 -171 -43 -177 -37 -7 8 -82 285 -77 289 8 6
155 42 166 41 9 -1 27 -52 52 -147z m1185 -12 c15 -65 26 -119 23 -122 -2 -2
-58 -18 -124 -36 -66 -17 -127 -33 -136 -36 -13 -4 -22 18 -48 120 -17 69 -31
128 -31 131 0 3 8 5 18 5 9 1 71 16 137 34 66 18 123 31 126 27 4 -3 19 -59
35 -123z m-1393 -35 c20 -80 35 -148 33 -150 -8 -8 -180 -53 -185 -48 -4 5
-80 289 -78 291 2 2 178 51 187 53 3 1 22 -65 43 -146z m-1695 108 c3 -16 8
-20 22 -16 16 5 21 -2 33 -42 32 -110 71 -272 67 -276 -10 -10 -190 -55 -194
-49 -2 4 -20 67 -39 139 -31 118 -34 134 -20 142 12 6 14 17 10 40 -6 29 -3
33 46 61 58 33 71 34 75 1z m1476 -163 c20 -79 36 -146 36 -149 0 -8 -169 -53
-176 -47 -7 7 -74 259 -74 278 0 11 24 22 78 37 42 11 82 21 88 22 6 1 27 -63
48 -141z m2084 124 c6 -18 -15 -14 -22 4 -4 10 -1 14 6 12 6 -2 14 -10 16 -16z
m-783 -112 c16 -66 27 -122 24 -124 -5 -5 -243 -66 -245 -63 0 1 -15 57 -31
124 l-31 123 37 10 c135 38 178 49 197 49 18 1 24 -13 49 -119z m-1505 -83
c19 -74 29 -131 24 -136 -10 -9 -175 -54 -179 -49 -1 2 -16 62 -34 133 -17 72
-34 137 -37 146 -7 24 178 72 187 49 3 -8 21 -73 39 -143z m-1484 118 c5 -19
11 -24 24 -20 12 4 20 0 24 -12 14 -44 65 -247 63 -249 -1 -1 -55 -16 -120
-32 -83 -21 -120 -27 -122 -19 -2 7 -13 48 -24 92 -18 70 -18 81 -5 96 9 10
12 26 8 45 -5 28 -1 33 63 76 37 26 71 47 75 47 4 1 10 -10 14 -24z m2708 -92
c15 -60 29 -115 31 -124 4 -12 -17 -21 -99 -42 -57 -15 -108 -27 -113 -27 -10
0 -69 237 -61 245 6 6 179 53 199 54 13 1 23 -24 43 -106z m1077 81 c15 -14
23 -14 51 -5 33 12 34 12 95 -54 63 -67 69 -85 32 -85 -21 0 -25 -10 -8 -27 9
-9 2 -14 -27 -22 -94 -24 -135 -33 -138 -30 -2 2 -16 53 -30 113 -21 87 -24
111 -14 118 18 11 19 10 39 -8z m-2522 -141 c19 -76 36 -143 38 -149 4 -12
-148 -56 -158 -46 -11 11 -74 281 -67 287 5 6 123 42 143 44 6 0 26 -61 44
-136z m2467 42 c39 -152 54 -131 -139 -181 -117 -29 -170 -39 -172 -31 -10 30
-56 220 -53 222 9 6 315 83 327 82 10 -1 23 -34 37 -92z m-1268 -57 c17 -68
29 -124 28 -126 -6 -6 -237 -64 -240 -61 -4 6 -65 244 -63 245 3 1 231 62 238
63 4 1 20 -54 37 -121z m-1413 80 c3 -13 19 -79 35 -147 17 -68 29 -125 28
-126 -12 -11 -211 -56 -218 -49 -8 9 -72 244 -74 273 -1 10 31 23 104 42 58
15 108 28 112 28 4 1 10 -9 13 -21z m2319 -142 c15 -60 25 -110 24 -112 -2 -1
-65 -18 -141 -37 -97 -25 -140 -32 -142 -24 -11 30 -56 220 -53 222 11 9 274
71 279 66 3 -3 18 -55 33 -115z m-1179 2 c15 -62 30 -118 32 -124 2 -6 -23
-18 -59 -27 -112 -29 -118 -30 -122 -16 -27 92 -57 212 -53 222 2 8 114 46
168 56 3 0 18 -50 34 -111z m-2404 42 c14 8 20 -3 38 -76 12 -48 21 -88 19
-89 -2 -2 -45 -14 -95 -27 l-93 -25 -10 36 c-13 49 -13 62 5 75 12 9 13 18 6
44 -9 31 -8 34 42 72 l52 39 10 -29 c8 -23 13 -27 26 -20z m1042 -91 c21 -78
35 -144 32 -148 -8 -7 -169 -50 -173 -46 -5 5 -72 260 -72 276 0 12 20 22 73
37 39 11 79 21 87 21 12 1 25 -35 53 -140z m1136 64 c6 -21 19 -73 31 -117 11
-43 18 -81 16 -84 -3 -3 -45 -16 -93 -28 -90 -24 -102 -22 -103 16 0 8 -12 53
-25 99 -14 47 -25 90 -25 96 0 10 130 50 172 54 12 1 20 -11 27 -36z m-1351
-90 c18 -65 34 -132 38 -149 l6 -30 -99 -26 c-54 -15 -101 -23 -105 -20 -7 8
-80 283 -76 287 3 2 188 53 199 54 4 1 20 -52 37 -116z m2446 -7 c15 -60 25
-110 24 -111 -10 -9 -244 -63 -249 -57 -7 7 -54 197 -54 217 0 12 237 75 246
66 3 -3 18 -55 33 -115z m984 69 c28 6 34 1 70 -47 41 -53 41 -67 -1 -68 -15
0 -16 -3 -7 -20 6 -11 9 -20 7 -20 -2 0 -63 -15 -135 -34 l-132 -34 -9 36
c-33 125 -40 157 -36 160 2 2 43 14 92 27 77 19 90 20 105 8 11 -10 27 -13 46
-8z m-2277 -104 c16 -61 29 -115 29 -120 0 -7 -150 -52 -171 -51 -9 0 -72 230
-65 237 6 7 170 51 174 48 2 -2 17 -53 33 -114z m-1381 -41 c17 -69 34 -132
36 -141 3 -13 -16 -21 -93 -41 -54 -14 -99 -25 -101 -23 -3 3 -81 290 -79 291
12 8 194 49 198 45 4 -3 21 -62 39 -131z m2395 6 c14 -60 24 -111 22 -112 -9
-9 -210 -54 -216 -49 -7 8 -60 219 -56 223 8 9 211 58 217 53 4 -3 18 -55 33
-115z m1014 8 c13 -52 22 -97 20 -99 -5 -4 -315 -85 -326 -85 -10 0 -60 187
-52 194 5 5 298 83 320 85 11 1 21 -23 38 -95z m-2237 -24 c15 -58 26 -111 25
-119 -1 -8 -37 -23 -92 -37 -49 -13 -90 -22 -91 -21 -2 4 -53 201 -56 221 -2
16 10 23 77 42 44 12 87 22 95 21 10 -2 24 -36 42 -107z m-1988 74 c5 -19 11
-24 26 -19 11 4 20 2 20 -3 0 -5 3 -23 6 -39 6 -29 5 -30 -53 -42 -32 -8 -65
-16 -73 -19 -9 -3 -5 6 9 21 14 15 23 27 20 27 -2 0 -26 -7 -53 -15 -27 -8
-51 -13 -53 -11 -5 4 129 126 138 126 4 0 10 -12 13 -26z m591 -129 c21 -80
36 -147 34 -149 -7 -7 -233 -65 -237 -61 -5 4 -71 266 -72 281 0 8 174 63 231
73 3 1 23 -64 44 -144z m2360 48 c9 -43 21 -93 27 -112 8 -26 7 -35 -3 -41
-14 -10 -220 -62 -224 -58 -11 14 -56 221 -49 228 9 9 186 57 215 59 13 1 21
-17 34 -76z m-1181 -48 c14 -57 26 -111 26 -118 0 -9 -25 -21 -67 -32 -38 -10
-73 -20 -79 -22 -9 -3 -64 197 -64 233 0 5 26 17 58 26 101 28 96 32 126 -87z
m2091 -16 c13 -51 22 -95 19 -98 -5 -6 -202 -59 -250 -67 l-32 -6 -23 96 c-12
52 -21 97 -18 100 5 5 273 75 277 71 1 -1 13 -44 27 -96z m-3557 14 c38 -142
55 -214 51 -218 -3 -2 -46 -15 -97 -28 l-92 -25 -9 37 c-38 142 -63 252 -58
257 4 4 151 48 178 53 4 0 16 -34 27 -76z m1281 -58 c16 -66 29 -120 28 -121
-14 -9 -214 -51 -218 -46 -10 12 -62 222 -56 228 5 6 210 63 214 60 1 -1 15
-55 32 -121z m1081 110 c0 -2 13 -54 29 -115 l29 -110 -26 -6 c-15 -3 -55 -14
-90 -24 -46 -13 -64 -15 -67 -7 -14 43 -56 219 -53 222 6 6 141 44 161 44 9 1
17 -1 17 -4z m1907 -31 c4 -12 14 -14 39 -9 31 5 35 3 59 -34 30 -49 30 -49 3
-53 -16 -2 -22 -9 -21 -24 2 -18 -14 -25 -163 -63 -91 -24 -167 -41 -168 -39
-6 7 -39 159 -35 162 4 4 256 73 272 75 4 1 10 -6 14 -15z m-4498 -41 c34
-127 63 -254 60 -257 -4 -3 -273 -74 -316 -83 -18 -4 -23 2 -36 49 -38 130
-40 148 -25 166 9 9 13 23 11 29 -3 7 8 18 24 24 15 5 40 22 54 36 22 20 151
64 211 72 4 1 12 -16 17 -36z m2391 -15 c6 -24 20 -76 31 -116 11 -41 19 -75
17 -76 -12 -11 -183 -45 -188 -39 -8 8 -51 179 -54 210 -1 13 18 22 84 39 47
12 88 23 92 23 4 1 12 -18 18 -41z m1060 37 c0 -3 9 -38 19 -78 35 -130 44
-116 -97 -152 l-124 -32 -7 21 c-14 41 -45 175 -40 179 4 3 225 64 242 66 4 1
7 -1 7 -4z m-2206 -57 c27 -97 47 -180 44 -184 -2 -2 -41 -13 -87 -25 -68 -19
-84 -20 -91 -9 -9 15 -62 221 -58 225 5 4 152 43 165 44 6 1 18 -23 27 -51z
m2945 -25 c19 -70 30 -127 26 -131 -4 -5 -329 -91 -331 -89 -1 1 -10 39 -21
85 l-21 82 27 7 c14 3 87 23 161 44 74 20 138 37 142 38 4 0 12 -16 17 -36z
m-3134 -96 c16 -63 24 -112 19 -116 -10 -10 -193 -55 -198 -50 -6 7 -56 205
-56 220 0 11 30 23 98 41 53 14 100 23 103 19 3 -3 18 -55 34 -114z m1138 10
c16 -60 27 -111 24 -113 -2 -3 -43 -15 -90 -28 l-86 -24 -15 52 c-21 73 -46
180 -42 183 8 8 143 41 161 40 16 -2 24 -21 48 -110z m1002 -7 c12 -50 20 -92
16 -94 -12 -8 -212 -58 -215 -55 -6 8 -48 190 -45 194 11 10 214 61 217 54 2
-5 14 -50 27 -99z m-1226 3 c28 -96 44 -163 40 -167 -13 -10 -183 -46 -189
-39 -7 8 -61 226 -57 228 6 3 164 43 174 44 7 0 21 -29 32 -66z m-1150 -63
c17 -63 27 -117 23 -120 -4 -4 -47 -16 -96 -29 -69 -17 -91 -20 -97 -10 -9 15
-61 220 -57 224 4 3 192 53 194 51 1 0 16 -53 33 -116z m2107 73 c3 -16 14
-60 24 -100 16 -67 17 -73 1 -77 -82 -24 -213 -57 -216 -54 -2 2 -14 47 -28
100 l-25 98 37 9 c20 6 70 19 111 30 95 25 89 26 96 -6z m912 -65 c12 -45 20
-83 19 -84 -5 -3 -281 -73 -282 -71 -6 9 -43 163 -40 165 5 5 247 69 266 71
13 1 22 -19 37 -81z m766 66 c4 -12 14 -14 36 -9 28 6 30 4 64 -63 l35 -70
-29 -10 c-22 -8 -27 -15 -23 -31 3 -14 1 -21 -8 -21 -8 0 -94 -21 -192 -46
-98 -26 -179 -45 -180 -43 -2 2 -14 52 -29 111 l-25 108 41 11 c128 36 283 77
292 78 7 0 15 -6 18 -15z m-4994 -36 c0 -10 5 -18 10 -18 6 0 10 5 10 10 0 6
4 10 9 10 11 0 54 -157 48 -173 -4 -10 -72 -30 -212 -63 -27 -7 -29 -6 -16 10
19 23 11 27 -29 16 -19 -5 -35 -8 -37 -6 -4 4 88 126 150 199 50 58 66 61 67
15z m2152 -78 c15 -58 26 -109 25 -114 -3 -10 -148 -48 -156 -41 -5 5 -61 229
-58 231 1 1 29 8 62 17 98 25 96 27 127 -93z m-1167 -23 c15 -59 25 -110 22
-113 -11 -11 -232 -63 -238 -56 -8 9 -62 223 -57 226 11 9 234 62 239 57 3 -3
18 -55 34 -114z m977 -24 c15 -65 26 -119 24 -120 -8 -8 -198 -53 -205 -49 -9
6 -66 225 -60 230 3 2 187 51 209 55 3 1 17 -52 32 -116z m1106 34 c12 -46 24
-91 27 -99 5 -12 -10 -20 -73 -37 -43 -11 -85 -21 -93 -21 -10 0 -22 29 -39
95 -13 52 -21 97 -18 101 7 7 135 42 159 43 13 1 22 -20 37 -82z m846 -4 c9
-38 19 -75 22 -84 4 -13 -18 -22 -122 -48 -70 -18 -128 -30 -129 -29 -4 4 -44
163 -42 164 5 3 234 63 243 63 6 1 19 -29 28 -66z m-3200 -77 c15 -60 25 -110
23 -112 -4 -5 -190 -54 -192 -51 -6 7 -57 228 -54 231 10 10 185 53 190 47 3
-3 18 -55 33 -115z m3930 17 c14 -59 24 -108 22 -110 -4 -4 -279 -79 -310 -85
-17 -3 -23 11 -47 107 -15 60 -27 110 -26 111 5 4 304 82 319 83 13 1 22 -22
42 -106z m-1786 20 c38 -143 46 -125 -59 -151 -51 -13 -95 -19 -99 -15 -11 13
-51 185 -45 192 5 5 156 48 176 50 4 1 16 -34 27 -76z m-1137 -53 c17 -62 26
-116 22 -120 -4 -4 -45 -16 -90 -27 l-83 -21 -11 42 c-5 22 -19 74 -30 114
-11 41 -18 76 -16 79 6 6 171 51 175 48 1 -1 16 -53 33 -115z m-1252 43 c28
-109 50 -197 48 -198 -13 -8 -331 -85 -334 -81 -10 10 -64 219 -58 225 5 5
302 87 327 90 4 1 12 -16 17 -36z m3167 -42 l20 -79 -80 -22 c-45 -12 -94 -26
-110 -31 -16 -5 -31 -8 -32 -6 -5 5 -42 162 -39 165 6 7 171 50 196 51 23 1
26 -5 45 -78z m-989 -26 c12 -49 21 -94 20 -99 -4 -11 -176 -56 -181 -47 -8
16 -48 192 -44 197 9 9 143 42 162 41 16 -2 24 -19 43 -92z m-1135 -25 c15
-58 28 -110 28 -116 0 -16 -200 -65 -206 -51 -2 7 -17 60 -33 119 l-29 108 37
9 c20 6 61 17 91 25 30 8 61 14 69 13 9 -1 24 -40 43 -107z m2771 -11 c15 -62
26 -113 25 -114 -3 -2 -259 -67 -272 -69 -7 -1 -69 216 -63 220 2 1 268 71
277 73 3 1 18 -49 33 -110z m-1863 39 c6 -24 18 -69 27 -101 9 -32 14 -59 12
-61 -2 -2 -46 -15 -97 -29 -64 -16 -95 -21 -97 -13 -15 42 -45 180 -42 189 3
9 136 50 179 56 4 1 12 -18 18 -41z m964 -41 c10 -43 16 -80 13 -83 -9 -10
-217 -62 -221 -55 -5 7 -45 161 -42 162 12 7 205 56 216 55 10 -1 21 -27 34
-79z m-2106 -54 c17 -64 30 -117 29 -118 -17 -9 -189 -46 -193 -42 -10 10 -64
220 -58 226 6 7 152 48 175 50 13 1 24 -26 47 -116z m3822 101 c0 -13 7 -15
34 -10 34 6 35 5 45 -31 14 -51 15 -50 -15 -57 -19 -5 -24 -11 -19 -26 4 -11
3 -20 0 -20 -4 0 -92 -22 -197 -50 -105 -27 -194 -50 -198 -50 -4 0 -17 36
-28 80 l-20 80 22 6 c11 3 93 25 181 48 184 50 195 52 195 30z m-4976 -114
c16 -61 26 -113 23 -116 -8 -8 -350 -95 -354 -90 -3 2 -13 39 -24 81 l-20 76
21 34 c11 18 27 38 35 45 15 12 243 78 275 79 11 1 23 -29 44 -109z m2075 53
c34 -132 40 -158 33 -165 -8 -7 -123 -38 -144 -38 -16 0 -65 186 -53 198 8 8
112 39 137 41 12 1 20 -11 27 -36z m1775 -68 c14 -57 26 -106 26 -109 0 -2
-12 -6 -27 -8 -16 -3 -72 -17 -127 -32 -54 -15 -100 -25 -101 -24 -1 2 -12 44
-24 93 -12 50 -24 97 -27 106 -3 13 13 21 78 39 46 12 94 26 108 30 63 21 65
18 94 -95z m-850 28 c9 -38 19 -75 21 -83 4 -12 -16 -21 -86 -39 -50 -12 -92
-21 -93 -19 -1 1 -11 40 -23 85 l-21 81 77 20 c112 29 106 31 125 -45z m-2095
25 c14 -46 51 -186 51 -196 0 -4 -28 -14 -62 -22 -35 -7 -89 -21 -120 -31
l-57 -17 -10 32 c-27 92 -52 199 -46 204 7 8 191 59 217 61 10 1 20 -11 27
-31z m990 -75 c35 -133 41 -122 -72 -152 -80 -20 -100 -23 -107 -12 -13 22
-53 181 -47 187 6 6 174 52 193 53 7 1 21 -34 33 -76z m901 -14 c12 -44 19
-83 17 -86 -8 -7 -180 -53 -185 -49 -9 9 -43 159 -37 165 6 6 148 47 171 50 7
0 22 -35 34 -80z m771 -42 c15 -59 24 -107 20 -107 -3 0 -54 -13 -112 -29
l-107 -28 -27 109 c-15 60 -25 111 -23 112 9 6 204 54 213 52 5 -1 21 -50 36
-109z m1007 33 l20 -80 -42 -11 c-22 -6 -97 -26 -164 -44 -123 -32 -124 -32
-132 -11 -14 38 -33 136 -28 142 7 6 286 81 309 83 12 1 21 -19 37 -79z
m-3939 23 c41 -157 48 -189 43 -195 -10 -9 -183 -50 -189 -44 -5 5 -63 229
-60 232 6 4 165 42 179 43 12 1 20 -11 27 -36z m1015 -35 c25 -86 39 -149 35
-152 -9 -7 -171 -47 -175 -43 -5 5 -54 184 -54 197 0 7 134 46 167 49 7 1 19
-23 27 -51z m928 -33 c10 -38 18 -75 18 -81 0 -15 -168 -60 -179 -48 -10 10
-45 153 -40 158 9 9 146 44 163 43 16 -2 24 -17 38 -72z m-3007 19 c6 -33 7
-35 20 -18 15 21 16 21 34 -51 18 -67 23 -63 -94 -91 -27 -7 -29 -6 -16 10 19
23 8 30 -29 17 -29 -9 -31 -9 -26 7 13 32 90 162 97 162 4 0 10 -16 14 -36z
m859 -88 c15 -60 24 -111 21 -114 -6 -7 -319 -91 -323 -87 -8 7 -62 228 -57
234 11 11 320 89 327 82 3 -3 18 -55 32 -115z m2883 29 c12 -49 23 -97 23
-106 0 -13 -25 -23 -106 -43 -59 -15 -109 -25 -112 -22 -5 6 -62 210 -59 213
7 6 196 51 211 50 16 -2 24 -19 43 -92z m1723 75 c0 -16 5 -19 30 -14 33 7 42
-6 54 -83 6 -40 5 -42 -21 -45 -21 -2 -27 -8 -25 -23 2 -18 -17 -25 -192 -69
-107 -27 -199 -49 -203 -48 -9 1 -53 184 -46 194 2 5 12 8 21 8 9 1 96 23 192
49 96 27 178 49 183 50 4 0 7 -8 7 -19z m-3582 -103 c13 -54 22 -100 19 -103
-9 -9 -182 -54 -192 -50 -11 4 -61 193 -54 200 7 7 183 54 193 52 5 -1 20 -46
34 -99z m2760 21 c12 -45 20 -83 19 -84 -1 0 -64 -17 -140 -37 l-138 -36 -8
22 c-13 35 -35 137 -30 142 4 3 253 72 270 74 4 1 16 -36 27 -81z m-1858 30
c6 -24 16 -60 21 -81 5 -20 7 -41 5 -46 -6 -9 -185 -56 -190 -50 -2 2 -12 41
-23 85 l-20 82 91 25 c50 14 94 26 98 26 4 1 12 -18 18 -41z m704 -95 c15 -58
23 -109 19 -113 -4 -4 -45 -16 -91 -27 l-82 -21 -6 27 c-4 14 -15 59 -26 99
-11 40 -18 78 -16 84 3 9 132 53 169 57 4 1 19 -47 33 -106z m-1842 -15 c15
-57 25 -104 23 -106 -5 -6 -187 -53 -190 -50 -5 5 -56 201 -53 203 2 2 162 48
188 54 3 0 18 -45 32 -101z m926 10 c12 -46 18 -86 14 -89 -7 -6 -134 -39
-151 -39 -5 0 -16 31 -25 69 -9 38 -18 75 -21 83 -5 11 12 20 67 35 40 12 78
22 84 22 6 1 21 -36 32 -81z m-2076 -33 c14 -55 27 -107 27 -116 1 -12 -39
-26 -179 -61 l-180 -46 -11 42 c-5 22 -20 76 -31 119 -11 43 -19 79 -17 81 12
8 327 84 344 83 17 -2 25 -19 47 -102z m3835 25 c11 -44 17 -82 14 -85 -14 -8
-243 -66 -247 -62 -5 5 -31 103 -36 136 -3 22 3 25 102 51 58 14 112 29 120
33 8 3 18 6 21 6 3 1 15 -35 26 -79z m-1071 33 c4 -16 15 -59 25 -98 11 -38
19 -74 19 -80 0 -10 -177 -61 -185 -54 -3 4 -43 153 -52 194 -4 19 5 23 74 42
106 28 111 28 119 -4z m1793 -69 c12 -53 21 -97 19 -99 -10 -7 -328 -81 -328
-76 0 3 -12 46 -25 96 -13 49 -23 90 -22 91 6 4 305 83 318 83 12 1 21 -22 38
-95z m-3631 -27 c13 -54 22 -100 19 -103 -3 -3 -56 -19 -118 -35 -88 -24 -114
-28 -120 -18 -11 18 -52 189 -47 194 6 7 222 63 232 61 5 -1 20 -46 34 -99z
m960 21 c11 -47 16 -85 11 -89 -16 -10 -189 -52 -194 -47 -7 6 -47 160 -43
163 4 4 179 52 194 54 7 0 21 -36 32 -81z m683 -64 l26 -104 -41 -11 c-91 -25
-141 -37 -143 -36 -5 6 -53 210 -50 214 8 7 172 50 177 46 3 -3 17 -51 31
-109z m979 49 c6 -32 14 -68 17 -80 4 -19 -2 -24 -48 -37 -113 -33 -164 -44
-170 -38 -8 9 -43 152 -38 156 6 6 192 54 210 55 12 1 20 -15 29 -56z m-3936
-78 c16 -64 27 -117 25 -119 -4 -4 -319 -86 -330 -86 -4 0 -5 9 -2 20 5 17 2
18 -28 10 -19 -6 -35 -10 -35 -10 -4 0 38 105 62 161 22 49 28 55 49 51 18 -3
32 4 52 26 18 20 47 36 83 45 97 27 91 31 124 -98z m2031 58 c10 -32 19 -72
22 -88 5 -30 4 -31 -64 -48 -37 -9 -77 -19 -89 -22 -18 -6 -23 2 -42 76 -12
45 -20 85 -16 88 4 5 137 44 166 50 4 0 14 -25 23 -56z m-996 -40 c13 -49 25
-95 27 -105 5 -17 -2 -20 -124 -53 -35 -9 -66 -14 -69 -12 -7 7 -55 199 -51
203 3 3 173 51 189 53 3 1 16 -38 28 -86z m3551 -8 c13 -52 22 -96 19 -98 -11
-10 -271 -69 -276 -63 -4 4 -17 45 -29 92 -16 67 -18 87 -8 91 14 5 255 71
265 72 4 1 17 -42 29 -94z m-1857 27 c21 -69 41 -162 36 -166 -2 -2 -46 -15
-97 -29 l-92 -24 -15 51 c-8 28 -21 77 -29 108 l-14 58 41 11 c23 6 62 17 87
24 66 20 68 19 83 -33z m2677 24 c0 -8 10 -11 29 -8 27 4 28 2 35 -49 7 -55 3
-65 -29 -71 -12 -2 -20 -11 -20 -23 0 -21 -9 -24 -244 -85 -92 -25 -125 -30
-131 -21 -12 20 -44 171 -37 177 9 9 381 102 390 97 4 -2 7 -10 7 -17z m-1718
-71 c10 -43 16 -80 14 -82 -2 -2 -51 -17 -110 -32 l-106 -28 -11 41 c-6 23
-15 58 -20 80 -6 21 -7 41 -4 45 8 7 196 59 209 57 5 -1 18 -37 28 -81z
m-1858 -7 c10 -40 20 -78 22 -84 6 -13 -195 -69 -206 -57 -12 13 -43 153 -35
161 8 9 152 49 181 51 17 1 23 -10 38 -71z m-1035 25 c34 -130 42 -166 37
-171 -6 -5 -243 -70 -292 -78 l-31 -6 -27 102 c-15 56 -26 103 -24 105 3 3
303 82 320 84 4 1 12 -16 17 -36z m1725 -90 c14 -59 24 -107 23 -108 -6 -4
-161 -44 -162 -42 -7 18 -53 213 -50 215 4 5 135 40 152 41 6 1 22 -44 37
-106z m1754 10 c12 -48 19 -90 15 -93 -9 -8 -215 -60 -236 -60 -12 0 -63 168
-53 177 7 7 209 61 231 62 18 1 24 -11 43 -86z m-837 7 c10 -36 18 -72 19 -80
0 -11 -26 -22 -87 -38 -47 -12 -88 -20 -90 -18 -7 6 -45 158 -41 161 7 7 154
43 167 42 8 -1 22 -29 32 -67z m-1851 18 c6 -24 16 -60 22 -81 6 -20 9 -40 6
-43 -6 -5 -176 -54 -189 -54 -5 0 -43 142 -44 164 0 8 148 52 182 55 7 1 17
-18 23 -41z m739 -75 c13 -54 25 -103 27 -109 5 -11 -193 -66 -200 -56 -6 11
-57 205 -54 208 4 3 179 51 194 53 5 1 20 -43 33 -96z m2671 6 c13 -51 19 -94
14 -98 -9 -8 -290 -82 -309 -81 -10 0 -60 179 -53 186 4 3 299 81 314 83 7 0
22 -39 34 -90z m-4539 -38 c19 -72 24 -104 15 -107 -31 -11 -350 -93 -353 -91
-6 7 -56 207 -52 211 6 6 343 93 353 92 5 -1 22 -48 37 -105z m2775 18 c11
-43 18 -79 15 -79 -3 0 -46 -11 -96 -24 -49 -14 -90 -24 -91 -23 0 1 -10 39
-21 85 l-21 82 27 6 c14 4 55 14 91 24 36 10 67 15 70 13 3 -2 14 -40 26 -84z
m759 -13 c15 -60 19 -89 11 -92 -47 -17 -211 -52 -216 -46 -9 9 -44 171 -39
175 8 6 204 55 213 53 5 -1 19 -42 31 -90z m-2618 2 c12 -46 20 -84 18 -86
-10 -11 -239 -62 -245 -55 -11 12 -43 153 -36 160 6 7 204 61 226 62 11 1 22
-23 37 -81z m722 -35 c13 -54 26 -103 28 -109 3 -9 -174 -62 -181 -53 -4 5
-55 213 -53 214 9 4 164 43 173 44 5 1 21 -43 33 -96z m916 5 c10 -40 20 -78
22 -83 3 -10 -173 -62 -182 -54 -4 5 -45 163 -42 164 8 4 164 43 173 44 5 1
18 -32 29 -71z m1632 -34 c12 -49 19 -92 15 -95 -8 -7 -247 -69 -266 -69 -11
0 -61 178 -53 187 7 6 262 71 272 69 5 -1 19 -43 32 -92z m-918 49 c26 -100
33 -134 28 -139 -6 -6 -185 -53 -203 -54 -11 0 -59 168 -50 177 7 7 169 50
193 52 18 1 24 -7 32 -36z m-2639 -15 c6 -24 16 -60 22 -81 7 -23 8 -41 2 -46
-13 -12 -183 -55 -190 -48 -9 9 -46 159 -40 164 6 6 164 51 183 52 7 1 17 -18
23 -41z m4371 9 c29 5 29 5 29 -44 0 -48 -1 -51 -30 -56 -21 -5 -30 -12 -30
-26 0 -15 -10 -23 -37 -30 -104 -27 -283 -71 -291 -71 -11 0 -46 149 -37 158
3 4 86 27 183 53 162 42 177 44 180 28 3 -14 10 -17 33 -12z m-5412 -14 c25
-90 43 -174 39 -178 -5 -5 -457 -125 -471 -125 -5 0 -5 9 -2 20 7 23 6 24 -29
10 -32 -12 -33 -2 -9 92 16 63 19 67 50 73 22 4 38 14 45 29 9 21 34 30 182
69 94 24 174 45 178 46 4 0 12 -16 17 -36z m1844 -65 c15 -55 25 -103 23 -105
-5 -6 -178 -53 -192 -53 -13 0 -69 198 -59 208 9 9 155 50 181 51 18 1 24 -12
47 -101z m913 2 l20 -80 -50 -15 c-91 -25 -131 -35 -142 -35 -10 0 -51 157
-42 164 7 6 154 44 173 45 17 1 24 -12 41 -79z m690 -33 l22 -87 -37 -10 c-20
-5 -60 -16 -88 -24 -29 -8 -55 -12 -57 -8 -7 11 -47 174 -44 177 7 5 164 43
173 41 5 -1 19 -41 31 -89z m-2636 41 c6 -24 15 -59 21 -78 5 -19 9 -38 9 -42
0 -4 -30 -16 -67 -26 -90 -26 -236 -65 -247 -66 -7 -1 -58 165 -53 171 2 2
309 81 319 82 4 1 12 -18 18 -41z m3459 5 c38 -146 39 -154 28 -158 -41 -14
-242 -63 -245 -60 -4 4 -52 189 -49 191 3 1 240 62 249 63 4 1 12 -16 17 -36z
m-2659 -80 l27 -102 -51 -15 c-111 -31 -139 -37 -146 -29 -6 7 -49 166 -54
197 -1 10 150 55 178 52 15 -1 24 -21 46 -103z m914 25 c10 -35 20 -71 22 -80
4 -13 -6 -20 -46 -32 -28 -9 -66 -18 -84 -22 l-33 -6 -21 82 c-22 91 -27 83
55 105 86 24 88 23 107 -47z m713 -44 c15 -60 17 -87 9 -89 -42 -15 -169 -45
-173 -41 -6 5 -53 170 -50 172 8 5 156 43 172 43 18 1 24 -11 42 -85z m1764 6
c12 -54 14 -77 6 -82 -15 -9 -307 -81 -312 -77 -8 8 -43 159 -36 159 3 1 71
18 151 40 80 21 151 38 159 37 9 -1 21 -30 32 -77z m-3632 23 c39 -150 42
-166 31 -173 -19 -12 -230 -63 -236 -57 -9 9 -55 199 -50 205 8 8 198 60 223
61 18 1 24 -7 32 -36z m969 -56 c11 -42 17 -79 13 -81 -13 -7 -192 -48 -195
-45 -1 2 -12 39 -23 82 -17 66 -18 80 -6 84 43 17 179 49 185 44 3 -3 15 -41
26 -84z m1661 -11 c12 -49 20 -90 19 -92 -2 -1 -53 -16 -114 -32 l-111 -29
-22 94 c-13 52 -21 97 -17 100 10 10 211 61 217 54 3 -3 16 -46 28 -95z
m-3530 -2 c12 -47 21 -87 19 -88 -8 -6 -361 -97 -363 -94 -5 5 -46 170 -43
173 4 3 340 92 353 94 6 0 21 -38 34 -85z m2550 -11 c11 -48 19 -89 17 -91 -5
-4 -157 -42 -171 -42 -11 0 -58 160 -50 168 4 4 159 49 177 51 3 1 16 -38 27
-86z m-910 -24 c12 -45 19 -85 15 -88 -3 -3 -42 -16 -87 -27 -59 -16 -84 -19
-89 -11 -13 21 -40 148 -34 155 6 5 134 45 167 51 3 0 16 -36 28 -80z m-999
-36 l26 -103 -30 -9 c-64 -20 -168 -42 -173 -38 -8 9 -54 199 -49 204 8 9 170
52 185 50 9 -1 24 -39 41 -104z m2619 70 c38 -146 39 -154 28 -159 -17 -6
-202 -52 -203 -51 -1 1 -12 46 -26 99 l-26 98 37 9 c20 6 61 16 91 25 83 22
88 21 99 -21z m919 -44 c14 -57 17 -81 9 -84 -26 -8 -258 -65 -266 -65 -8 0
-41 115 -41 143 0 9 29 22 83 37 45 12 102 28 127 36 25 7 50 13 56 13 6 1 21
-35 32 -80z m735 54 c-5 -14 -1 -15 25 -10 l32 7 0 -66 c0 -63 -1 -65 -30 -75
-16 -6 -30 -17 -30 -24 0 -20 -12 -25 -151 -60 l-129 -33 -6 27 c-3 14 -14 58
-24 98 l-18 71 77 21 c260 69 264 70 254 44z m-2576 -78 l20 -84 -31 -10 c-79
-25 -159 -42 -167 -34 -4 4 -16 43 -27 85 l-20 78 42 11 c22 6 61 17 86 24 75
23 74 23 97 -70z m-2730 -42 l20 -82 -61 -16 c-512 -135 -501 -133 -504 -114
-3 15 -9 17 -34 12 l-31 -6 7 53 c9 66 11 70 42 70 17 0 27 8 34 24 5 13 17
27 27 30 10 3 99 26 198 52 99 26 200 52 225 59 25 7 48 9 51 6 3 -3 15 -43
26 -88z m1813 55 c6 -24 16 -60 21 -82 6 -21 9 -39 7 -41 -5 -5 -200 -56 -203
-53 -6 9 -44 163 -41 166 6 6 169 51 188 51 12 1 21 -12 28 -41z m-1031 -5
c35 -136 41 -167 34 -173 -4 -4 -46 -17 -93 -29 -47 -11 -115 -30 -152 -40
l-68 -19 -9 36 c-30 113 -43 173 -39 178 4 4 289 80 310 83 4 1 12 -16 17 -36z
m2643 -61 l25 -99 -90 -22 c-49 -12 -90 -21 -92 -19 -5 5 -45 167 -45 181 0
13 118 54 161 56 12 1 22 -24 41 -97z m-924 -4 c11 -46 18 -84 17 -86 -3 -4
-145 -42 -156 -42 -8 0 -52 161 -45 167 5 5 133 41 153 42 6 1 20 -35 31 -81z
m1756 6 c10 -41 15 -78 11 -82 -10 -10 -245 -69 -249 -63 -12 21 -36 145 -29
151 6 6 211 64 244 69 3 1 13 -33 23 -75z m715 -29 c11 -46 21 -90 21 -97 0
-17 -308 -95 -319 -82 -10 11 -51 177 -46 182 4 5 294 80 311 81 6 1 21 -37
33 -84z m-3384 3 c10 -40 20 -78 22 -84 2 -6 -32 -20 -79 -33 -46 -12 -90 -24
-99 -27 -13 -4 -21 12 -39 77 -12 44 -19 84 -15 87 7 8 151 49 176 51 11 1 20
-19 34 -71z m1627 -28 l25 -100 -36 -10 c-131 -35 -146 -37 -152 -26 -13 22
-50 179 -44 185 5 5 144 45 175 50 3 1 17 -44 32 -99z m-909 -1 c10 -44 16
-84 12 -87 -7 -7 -179 -51 -183 -47 -8 7 -43 147 -40 157 4 10 139 54 178 57
11 1 20 -21 33 -80z m-1874 24 c5 -21 18 -68 27 -105 10 -37 16 -69 14 -71 -3
-2 -79 -23 -170 -46 -91 -23 -172 -44 -180 -47 -12 -3 -21 17 -39 85 -12 49
-24 97 -24 107 -2 16 26 26 173 65 96 26 178 48 182 48 4 1 12 -16 17 -36z
m3531 -15 c5 -24 14 -58 19 -75 5 -18 6 -35 3 -37 -21 -12 -217 -55 -223 -49
-7 8 -40 146 -36 149 6 4 195 52 209 53 12 1 20 -11 28 -41z m-2597 -51 c11
-43 18 -80 16 -82 -6 -5 -241 -66 -244 -63 -6 8 -44 162 -41 166 8 8 212 60
231 58 15 -1 23 -16 38 -79z m1616 46 c29 -108 41 -157 38 -159 -5 -4 -158
-44 -170 -44 -13 0 -66 184 -56 194 6 7 140 44 161 45 12 1 20 -11 27 -36z
m-3817 0 c48 -43 43 -152 -15 -315 -14 -42 -18 -68 -12 -95 4 -21 8 -54 9 -73
1 -27 5 -34 18 -32 19 3 22 -5 42 -122 11 -65 13 -94 5 -109 -20 -36 -5 -105
30 -141 38 -39 100 -213 99 -279 -1 -43 35 -127 54 -127 5 0 33 -23 62 -51 61
-58 116 -151 116 -197 0 -37 -48 -82 -87 -82 -14 0 -103 18 -197 41 -400 95
-754 156 -1196 205 -114 13 -230 17 -435 17 -314 -2 -325 0 -325 60 0 18 6 41
13 50 6 9 75 49 152 88 268 135 453 257 815 538 225 174 433 350 609 516 63
59 129 114 145 121 35 15 72 10 98 -13z m2908 -25 c6 -24 16 -60 21 -82 6 -21
9 -39 7 -41 -5 -6 -172 -44 -175 -41 -5 5 -43 139 -43 152 0 10 127 50 167 53
7 1 17 -18 23 -41z m2548 -49 c12 -51 20 -94 17 -97 -10 -11 -270 -71 -276
-64 -7 8 -49 175 -45 179 2 2 57 17 122 34 65 17 121 33 123 35 2 2 12 4 21 4
12 0 21 -23 38 -91z m-1839 -31 c12 -51 21 -97 20 -103 -1 -10 -147 -54 -180
-55 -13 0 -22 22 -39 95 -12 53 -20 99 -16 102 5 5 166 50 187 52 4 1 16 -41
28 -91z m935 8 c9 -38 13 -72 9 -76 -12 -11 -193 -53 -199 -47 -3 3 -14 37
-24 77 -13 52 -15 72 -7 75 50 18 193 51 198 46 3 -3 14 -37 23 -75z m-2628
-21 c11 -47 19 -85 17 -85 -2 0 -46 -12 -99 -26 -53 -14 -100 -22 -104 -17 -8
10 -43 154 -38 159 4 4 178 52 193 53 6 1 19 -37 31 -84z m785 0 c11 -43 18
-79 15 -82 -4 -4 -183 -52 -197 -53 -5 0 -41 139 -40 157 0 8 193 63 199 58 2
-2 12 -38 23 -80z m3419 57 c0 -15 6 -18 31 -14 27 4 30 2 26 -14 -3 -11 -9
-40 -12 -65 -6 -42 -10 -48 -38 -56 -20 -5 -33 -16 -35 -29 -2 -16 -20 -24
-93 -43 -50 -12 -92 -21 -93 -19 -7 7 -48 189 -45 193 5 4 228 63 247 64 6 1
12 -7 12 -17z m-5238 -94 c15 -57 26 -103 25 -104 -4 -3 -622 -164 -629 -164
-5 0 -8 7 -8 16 0 13 -7 15 -30 11 l-30 -6 0 73 c0 74 0 74 29 81 20 4 31 13
33 27 3 19 33 30 273 94 149 39 279 72 290 73 18 1 24 -13 47 -101z m4255 -2
c13 -49 22 -90 21 -92 -7 -7 -251 -64 -255 -60 -3 3 -16 44 -28 91 -18 68 -21
87 -10 91 34 13 222 62 234 60 9 -1 23 -34 38 -90z m-1757 -11 c13 -52 24 -97
24 -101 1 -4 -36 -17 -81 -29 -46 -12 -83 -21 -83 -20 0 1 -11 47 -25 101 -14
53 -23 99 -21 102 5 4 134 40 152 41 6 1 21 -42 34 -94z m925 14 c10 -40 14
-74 9 -78 -5 -5 -39 -15 -75 -24 -36 -9 -73 -19 -81 -22 -12 -5 -20 11 -35 74
l-20 79 46 12 c25 7 57 16 71 20 60 20 67 15 85 -61z m-2635 19 c6 -24 16 -60
21 -82 6 -21 8 -40 5 -43 -7 -7 -277 -82 -297 -83 -13 0 -22 21 -39 81 -12 44
-20 82 -18 84 3 3 294 82 310 84 4 1 12 -18 18 -41z m797 -47 l20 -79 -97 -25
-98 -24 -17 66 c-9 36 -19 73 -21 82 -3 11 14 20 73 36 122 33 117 35 140 -56z
m3372 32 c32 -124 40 -158 37 -161 -11 -11 -310 -82 -316 -75 -10 11 -52 184
-46 190 4 4 287 79 308 82 4 1 12 -16 17 -36z m-2673 5 c21 -66 42 -173 36
-180 -9 -8 -173 -50 -178 -45 -6 5 -56 199 -52 201 5 4 163 44 175 45 6 1 15
-9 19 -21z m927 -52 c9 -35 17 -71 17 -79 0 -10 -28 -22 -90 -37 -50 -12 -92
-21 -94 -19 -10 13 -36 143 -29 150 7 6 143 45 168 48 6 1 19 -28 28 -63z
m756 -36 c11 -46 19 -85 17 -87 -1 -1 -53 -16 -114 -32 l-112 -29 -9 36 c-25
98 -33 144 -27 150 11 10 210 59 218 53 3 -3 16 -44 27 -91z m-2607 5 c26 -95
31 -88 -93 -119 -60 -15 -116 -29 -123 -32 -9 -4 -19 19 -33 75 l-21 81 37 10
c224 63 211 64 233 -15z m-906 -44 c17 -60 20 -83 11 -86 -41 -14 -360 -95
-362 -93 -1 2 -11 40 -23 86 -15 61 -17 85 -8 88 31 12 342 92 350 90 6 -1 20
-39 32 -85z m1623 22 c38 -131 38 -130 -6 -142 -21 -6 -62 -17 -90 -25 -29 -8
-53 -12 -53 -9 0 3 -11 48 -25 100 -14 53 -23 98 -21 101 8 7 128 40 153 41
19 1 25 -9 42 -66z m916 0 c9 -32 18 -66 21 -75 4 -13 -5 -20 -38 -28 -24 -6
-65 -18 -92 -26 -27 -8 -50 -13 -52 -11 -1 1 -11 36 -22 78 l-19 77 76 20
c111 29 107 30 126 -35z m704 10 c15 -56 30 -127 31 -139 0 -10 -196 -62 -203
-53 -7 9 -47 172 -43 176 6 6 167 50 188 52 12 1 20 -11 27 -36z m910 0 c32
-125 40 -158 37 -161 -5 -4 -258 -72 -271 -72 -12 0 -60 189 -50 198 6 7 238
69 262 71 7 1 17 -16 22 -36z m-3525 -69 c10 -41 16 -77 15 -79 -10 -8 -200
-52 -203 -46 -9 15 -38 143 -33 148 6 5 174 51 193 52 6 1 18 -33 28 -75z
m792 -19 c13 -49 24 -95 24 -100 0 -6 -45 -22 -100 -37 l-100 -25 -16 56 c-8
31 -21 77 -29 103 l-13 48 37 10 c20 5 61 16 91 24 30 8 61 14 69 13 8 -1 23
-37 37 -92z m909 10 c10 -41 16 -77 14 -79 -8 -8 -199 -54 -199 -47 0 3 -9 37
-20 76 -10 38 -18 70 -17 71 3 3 180 51 192 53 6 0 19 -33 30 -74z m691 -27
c10 -46 19 -87 19 -92 0 -12 -173 -57 -179 -47 -7 11 -47 173 -44 176 5 5 151
43 169 44 12 1 21 -20 35 -81z m-3417 -33 c11 -43 19 -80 18 -81 -1 -1 -142
-39 -312 -84 -171 -44 -318 -83 -327 -86 -12 -4 -18 0 -18 11 0 14 -7 16 -30
13 -36 -5 -36 -6 -44 54 -7 45 -6 46 23 53 20 4 31 13 33 27 3 19 37 30 298
98 162 42 302 79 310 82 22 8 27 0 49 -87z m4237 68 c3 -16 15 -59 25 -98 10
-38 16 -71 14 -74 -4 -4 -244 -70 -255 -71 -9 0 -52 201 -46 208 7 7 213 60
238 61 11 1 20 -9 24 -26z m934 -8 l28 6 -14 -58 c-36 -137 -34 -133 -57 -133
-26 0 -38 -8 -53 -35 -6 -11 -19 -20 -29 -20 -15 0 -23 18 -41 90 -37 147 -41
135 51 159 77 20 80 20 83 3 3 -14 9 -17 32 -12z m-4394 -2 c3 -16 12 -49 19
-75 8 -29 10 -50 4 -53 -5 -3 -76 -23 -158 -44 l-148 -39 -21 76 c-12 42 -20
78 -17 80 3 3 292 80 307 81 4 1 10 -11 14 -26z m803 -60 c13 -49 25 -95 27
-104 3 -12 -16 -20 -91 -39 -52 -13 -97 -22 -99 -19 -5 6 -57 202 -54 204 6 4
164 43 179 44 12 1 22 -21 38 -86z m914 1 c10 -42 16 -78 15 -79 -2 -1 -39
-11 -84 -22 l-81 -20 -18 74 c-9 41 -15 76 -14 78 5 3 139 42 154 44 6 0 18
-33 28 -75z m716 -33 c12 -45 21 -84 19 -86 -7 -5 -182 -45 -185 -41 -2 2 -14
42 -27 90 l-24 86 36 9 c123 33 148 38 153 32 3 -3 16 -44 28 -90z m-1866 27
c3 -18 15 -64 26 -101 15 -50 17 -69 8 -72 -24 -9 -241 -64 -242 -62 -5 7 -55
210 -53 212 10 5 244 61 249 58 4 -1 9 -17 12 -35z m3631 -70 c15 -61 23 -114
19 -118 -7 -6 -290 -81 -304 -80 -10 0 -62 220 -55 228 8 8 272 80 297 81 13
1 22 -24 43 -111z m-2694 95 c0 -5 9 -38 19 -76 10 -37 16 -69 12 -71 -18 -11
-177 -44 -182 -38 -8 9 -39 135 -35 140 4 3 165 50 179 51 4 1 7 -2 7 -6z
m1678 -70 c38 -146 48 -126 -81 -160 -77 -21 -114 -26 -118 -19 -10 18 -52
196 -47 201 5 5 196 53 214 54 7 1 21 -34 32 -76z m-979 20 c26 -99 33 -134
28 -139 -4 -5 -161 -44 -176 -44 -7 0 -55 170 -49 175 5 5 151 43 170 44 12 1
20 -11 27 -36z m-2533 -48 c10 -41 16 -76 13 -78 -2 -2 -86 -24 -185 -49
l-182 -45 -17 66 c-10 36 -18 70 -19 75 -1 8 322 102 361 105 6 1 19 -32 29
-74z m1635 -26 c10 -35 18 -67 19 -70 0 -9 -158 -51 -172 -47 -10 4 -53 137
-46 143 7 6 164 43 172 41 5 -1 17 -31 27 -67z m1608 34 c28 -106 43 -174 40
-177 -2 -1 -48 -14 -101 -28 l-98 -26 -9 36 c-6 21 -18 67 -27 104 -10 37 -15
70 -12 74 5 5 166 50 190 53 4 1 12 -16 17 -36z m-2610 -73 c14 -55 22 -102
19 -105 -5 -6 -183 -55 -197 -55 -7 0 -52 177 -52 205 0 11 139 52 181 54 24
1 26 -5 49 -99z m1697 7 c12 -45 21 -84 19 -85 -7 -7 -198 -53 -202 -48 -5 5
-43 146 -43 162 0 11 190 65 200 57 3 -3 15 -41 26 -86z m1833 46 c5 -21 19
-73 29 -115 l20 -78 -34 -9 c-140 -39 -245 -63 -250 -58 -3 3 -18 55 -34 115
l-27 110 46 12 c25 7 82 23 126 36 109 31 112 31 124 -13z m-2735 -77 c9 -37
16 -69 14 -70 -6 -4 -184 -46 -194 -46 -10 0 -51 137 -43 144 11 8 195 52 200
47 3 -3 13 -37 23 -75z m1585 37 c28 -107 41 -162 41 -171 0 -11 -169 -56
-178 -47 -3 3 -18 51 -32 108 l-27 102 81 22 c107 28 104 28 115 -14z m-3414
-48 c10 -41 16 -77 14 -79 -2 -2 -148 -40 -324 -85 -288 -72 -321 -79 -332
-65 -8 11 -20 14 -38 10 -27 -7 -33 0 -37 43 -2 19 3 26 22 31 17 4 24 12 22
26 -2 17 31 28 325 106 181 47 329 87 329 87 1 1 10 -33 19 -74z m798 -27 c14
-57 24 -104 22 -106 -9 -9 -301 -80 -307 -74 -7 8 -60 204 -55 208 6 7 264 72
288 73 25 1 28 -3 52 -101z m1686 65 c26 -100 33 -134 28 -139 -5 -5 -144 -43
-159 -44 -6 0 -50 172 -45 175 3 2 149 42 159 44 4 0 12 -16 17 -36z m1786
-104 c16 -63 24 -114 19 -119 -10 -10 -246 -71 -252 -65 -2 2 -16 54 -32 115
-20 79 -25 113 -17 116 20 7 231 62 243 63 7 1 24 -48 39 -110z m-2676 18 c13
-49 15 -70 7 -72 -30 -11 -179 -46 -181 -43 -4 5 -45 142 -42 144 8 7 192 49
194 45 2 -3 11 -37 22 -74z m1626 -22 c15 -58 25 -108 22 -111 -6 -6 -180 -55
-182 -51 -6 11 -57 218 -54 220 5 4 160 44 175 46 6 0 23 -46 39 -104z m-917
-2 l19 -82 -89 -21 c-49 -13 -91 -20 -94 -17 -9 9 -45 159 -40 164 10 11 171
50 178 44 3 -3 15 -43 26 -88z m-1846 -40 c15 -59 25 -109 24 -110 -4 -4 -350
-93 -362 -93 -10 0 -69 208 -62 216 4 3 348 92 363 93 6 1 23 -47 37 -106z
m2548 -13 c11 -47 23 -92 26 -101 3 -12 -15 -20 -86 -39 -53 -13 -94 -19 -99
-14 -5 5 -20 55 -33 111 l-26 103 37 9 c131 35 146 37 153 27 3 -6 16 -50 28
-96z m-1636 29 c9 -39 14 -74 11 -78 -4 -3 -60 -20 -126 -37 l-119 -30 -11 40
c-6 23 -14 56 -19 74 -6 23 -5 34 3 37 13 5 229 63 238 64 3 1 13 -31 23 -70z
m2611 -47 c15 -62 25 -115 22 -118 -3 -3 -45 -16 -94 -28 -48 -13 -98 -26
-109 -30 -21 -6 -24 0 -50 108 -15 64 -26 118 -23 120 4 5 222 65 225 62 1 -1
14 -52 29 -114z m-1900 51 c10 -32 18 -71 19 -87 1 -29 -1 -30 -86 -51 l-88
-23 -9 37 c-17 63 -32 134 -29 137 4 3 150 42 165 43 6 1 19 -25 28 -56z
m2922 35 c-3 -8 -6 -5 -6 6 -1 11 2 17 5 13 3 -3 4 -12 1 -19z m-31 -13 c3
-14 3 -40 0 -58 -10 -46 -8 -89 4 -101 17 -17 11 -25 -25 -32 -24 -4 -40 -15
-49 -32 -11 -21 -30 -30 -101 -49 -49 -13 -90 -21 -92 -19 -3 2 -18 55 -33
117 -19 75 -25 116 -19 120 6 3 61 19 122 34 62 15 121 32 132 36 37 14 54 10
61 -16z m90 -1 c-3 -9 -6 -21 -6 -27 0 -7 -5 -4 -11 6 -11 18 -5 37 13 37 5 0
7 -7 4 -16z m-2272 -111 c15 -58 23 -109 19 -113 -10 -9 -163 -50 -185 -50
-11 0 -23 28 -42 106 -15 59 -24 109 -21 113 7 7 162 49 186 50 13 1 23 -23
43 -106z m-916 23 c12 -41 22 -80 22 -88 0 -8 -33 -21 -93 -35 -51 -13 -97
-23 -103 -23 -11 0 -51 156 -42 165 4 5 149 45 189 54 3 0 16 -32 27 -73z
m1846 -41 c14 -57 26 -111 26 -118 0 -18 -190 -69 -196 -53 -10 30 -55 219
-52 221 3 3 176 52 189 54 4 1 18 -46 33 -104z m-3663 -18 c15 -59 24 -109 20
-110 -3 -2 -143 -39 -310 -82 -273 -71 -304 -77 -312 -62 -7 12 -18 15 -39 11
-28 -6 -31 -3 -54 50 -35 79 -35 89 -6 96 17 4 24 12 22 26 -2 17 30 27 315
100 175 45 322 81 328 80 5 -1 21 -50 36 -109z m1034 43 c10 -39 16 -72 14
-74 -2 -2 -50 -14 -106 -28 l-103 -26 -11 42 c-5 22 -14 56 -19 74 -6 23 -5
34 3 37 34 12 165 43 183 44 19 1 24 -9 39 -69z m1466 -73 c19 -76 24 -110 16
-112 -75 -26 -159 -42 -162 -32 -15 44 -53 212 -49 217 9 9 128 39 148 37 16
-2 25 -21 47 -110z m2093 -3 c16 -63 26 -118 23 -121 -4 -3 -67 -22 -142 -43
l-135 -37 -9 36 c-36 137 -51 204 -47 208 6 6 247 71 266 72 12 1 23 -28 44
-115z m-3005 17 c11 -41 18 -77 15 -80 -5 -5 -188 -51 -191 -48 -5 6 -41 162
-38 165 9 9 181 49 186 43 4 -3 16 -39 28 -80z m1853 -40 c16 -63 27 -115 26
-116 -12 -9 -174 -43 -179 -37 -12 13 -61 214 -54 220 9 9 157 51 170 48 5 -1
22 -53 37 -115z m-2647 39 c10 -39 16 -72 14 -74 -6 -4 -285 -76 -297 -76 -9
0 -46 116 -44 137 1 8 262 81 293 82 13 1 21 -17 34 -69z m1508 -61 c15 -62
26 -113 25 -114 -17 -11 -172 -44 -178 -38 -9 10 -60 216 -55 221 6 6 139 40
160 41 18 1 24 -13 48 -110z m-938 11 c10 -44 16 -82 14 -84 -12 -12 -244 -64
-249 -56 -11 19 -43 151 -37 156 7 7 214 62 238 63 12 1 20 -19 34 -79z m1867
-43 c16 -60 28 -111 26 -113 -2 -2 -45 -14 -95 -28 l-91 -24 -27 107 c-15 58
-29 111 -32 116 -4 11 140 54 171 52 16 -2 25 -22 48 -110z m1051 -8 c16 -66
27 -122 25 -123 -6 -5 -238 -66 -251 -66 -11 0 -74 237 -65 244 6 5 233 64
248 65 11 1 22 -30 43 -120z m-2190 -10 c16 -61 27 -113 24 -115 -2 -3 -43
-15 -90 -28 -78 -22 -87 -22 -91 -7 -29 98 -57 214 -53 218 6 5 146 41 167 42
11 1 23 -29 43 -110z m-1634 19 c10 -38 18 -68 17 -68 0 0 -85 -22 -188 -49
l-188 -48 -10 41 c-6 22 -15 54 -21 70 -5 16 -8 31 -6 32 8 8 372 100 374 95
2 -3 11 -36 22 -73z m2556 -48 c15 -60 27 -113 26 -117 -1 -8 -142 -51 -171
-52 -12 -1 -23 28 -43 110 -15 62 -26 114 -23 116 4 4 162 51 177 52 4 1 19
-48 34 -109z m-1941 49 c9 -28 18 -65 22 -83 l6 -33 -104 -26 c-56 -14 -106
-23 -109 -19 -9 9 -42 152 -38 157 4 3 184 52 201 54 4 1 14 -22 22 -50z m807
-69 c16 -58 29 -110 29 -115 0 -9 -174 -60 -197 -57 -4 0 -22 53 -39 116 l-31
116 26 6 c14 4 55 14 91 24 36 10 71 17 79 17 9 -1 24 -40 42 -107z m2114 -28
c15 -62 26 -114 24 -115 -2 -2 -55 -17 -117 -33 l-112 -31 -10 36 c-22 82 -51
213 -48 216 2 2 53 16 113 32 71 18 112 25 116 18 3 -5 19 -61 34 -123z
m-1194 -17 c17 -65 24 -112 18 -115 -24 -15 -191 -52 -198 -44 -8 8 -62 216
-58 220 7 7 185 52 196 51 10 -1 24 -39 42 -112z m-1971 63 c6 -24 15 -59 21
-78 5 -19 9 -38 9 -42 0 -6 -300 -82 -305 -76 -6 7 -44 152 -41 156 4 3 283
80 298 81 4 1 12 -18 18 -41z m790 27 c0 -2 14 -55 30 -116 17 -62 29 -113 28
-114 -10 -7 -189 -48 -193 -44 -5 6 -66 232 -62 235 1 0 38 10 82 22 82 21
115 26 115 17z m-1566 -75 c10 -39 17 -72 15 -74 -2 -1 -132 -35 -288 -75
-255 -65 -286 -71 -297 -57 -8 11 -20 14 -42 10 -26 -5 -32 -2 -46 24 -17 32
-13 42 16 42 14 0 18 6 16 22 -3 20 15 26 292 99 162 43 300 78 306 78 5 1 18
-31 28 -69z m3680 -63 c16 -65 26 -120 24 -121 -1 -1 -44 -14 -95 -27 l-91
-26 -31 117 c-17 64 -31 122 -31 128 0 6 17 16 38 21 123 33 148 38 153 32 3
-3 18 -59 33 -124z m1066 113 c-6 -11 -9 -20 -8 -20 2 0 18 4 36 9 37 11 39 7
13 -34 -17 -29 -22 -31 -77 -30 -32 0 -62 -4 -66 -10 -11 -15 -28 7 -31 40 -2
26 2 29 58 46 82 24 88 24 75 -1z m-2236 -126 c16 -63 27 -116 25 -117 -2 -2
-41 -12 -87 -24 l-82 -21 -7 26 c-3 15 -16 68 -29 117 -12 50 -21 90 -21 91 5
3 153 43 162 43 6 1 24 -51 39 -115z m-1136 -22 c22 -81 27 -114 19 -117 -7
-2 -64 -18 -127 -34 -84 -23 -116 -27 -121 -19 -10 16 -63 228 -58 232 11 9
245 62 251 57 3 -3 20 -57 36 -119z m3214 88 c5 -32 5 -32 -112 -70 -36 -12
-84 -34 -107 -51 -23 -16 -43 -29 -46 -29 -7 0 -30 100 -24 106 7 7 239 72
263 73 17 1 23 -6 26 -29z m-1152 -22 c6 -24 20 -76 31 -116 10 -40 19 -78 19
-85 0 -12 -168 -63 -177 -54 -6 7 -63 220 -63 238 0 11 23 21 83 36 45 11 85
21 89 22 4 1 12 -18 18 -41z m-2984 -48 c12 -44 21 -80 20 -80 -1 0 -84 -20
-184 -45 -100 -25 -186 -45 -190 -45 -9 0 -47 148 -40 155 5 5 340 93 358 94
11 1 21 -23 36 -79z m1859 -45 c15 -64 26 -117 24 -119 -14 -10 -165 -44 -170
-38 -13 15 -60 215 -52 223 6 6 136 44 165 48 3 1 18 -51 33 -114z m-1220 -48
c15 -59 25 -110 22 -113 -6 -6 -185 -53 -203 -54 -10 0 -72 236 -63 243 2 2
49 15 104 29 68 17 102 21 106 14 3 -6 18 -60 34 -119z m2155 5 c19 -70 29
-126 24 -131 -10 -9 -175 -54 -178 -49 -1 2 -14 50 -29 108 -15 58 -30 114
-33 126 -5 19 3 23 88 45 51 14 94 25 94 24 1 0 17 -55 34 -123z m1028 76 c24
-79 25 -75 -56 -156 -42 -43 -80 -76 -84 -75 -5 2 -8 -4 -8 -12 0 -9 -6 -18
-14 -21 -8 -3 -16 -18 -20 -35 -3 -16 -9 -29 -14 -29 -10 0 -78 278 -70 286 5
5 233 72 250 73 3 1 11 -14 16 -31z m-2172 -65 c12 -45 25 -94 28 -111 l7 -29
-83 -22 c-46 -11 -88 -21 -93 -21 -11 0 -71 218 -62 226 9 10 141 43 161 41
16 -2 24 -19 42 -84z m-2066 15 c6 -24 15 -58 20 -77 5 -19 8 -37 5 -39 -2 -2
-118 -33 -257 -67 -229 -58 -254 -62 -270 -48 -11 10 -26 13 -46 8 -26 -5 -32
-2 -51 28 -11 19 -21 37 -21 39 0 3 14 8 31 12 27 5 30 8 19 21 -7 9 -11 17
-9 19 4 2 547 143 561 145 4 1 12 -18 18 -41z m804 -65 c15 -60 29 -116 32
-126 3 -9 0 -19 -8 -21 -50 -16 -291 -76 -292 -74 -4 6 -58 223 -60 237 -1 10
42 25 144 51 80 21 148 38 151 39 4 0 19 -47 33 -106z m2193 -20 c18 -70 31
-128 29 -130 -6 -6 -180 -52 -184 -49 -2 2 -18 61 -36 130 l-32 126 40 11 c23
5 61 16 86 24 25 7 50 13 55 14 6 1 25 -56 42 -126z m-1153 55 c33 -117 45
-173 38 -179 -10 -9 -191 -53 -196 -48 -2 2 -18 54 -34 116 l-30 111 96 25
c54 14 100 26 104 26 4 1 14 -23 22 -51z m2096 30 c1 -2 18 -73 39 -158 29
-116 36 -158 27 -166 -6 -6 -51 -21 -101 -33 -49 -12 -97 -24 -105 -26 -13 -4
-23 26 -55 155 -21 88 -36 162 -33 165 11 11 227 70 228 63z m-1190 -22 c0 -2
13 -55 30 -117 16 -63 30 -119 30 -125 0 -17 -200 -71 -209 -56 -11 18 -64
243 -58 248 13 13 207 60 207 50z m-1125 -123 c15 -60 28 -112 29 -117 1 -9
-182 -61 -190 -53 -6 6 -64 221 -60 224 3 3 172 50 187 52 3 1 18 -47 34 -106z
m-1147 -25 c18 -66 31 -122 30 -124 -2 -1 -87 -24 -191 -52 l-187 -49 -7 26
c-3 14 -18 72 -33 129 l-28 102 27 7 c14 4 91 23 171 44 80 20 154 38 165 38
18 1 25 -15 53 -121z m3208 75 c3 -16 21 -88 39 -161 18 -73 30 -134 26 -136
-13 -9 -173 -47 -178 -43 -7 8 -84 309 -80 314 4 4 163 50 179 52 4 1 10 -11
14 -26z m-1167 -20 c38 -146 52 -207 48 -218 -3 -6 -36 -20 -74 -30 -37 -10
-73 -20 -79 -22 -11 -4 -82 253 -72 262 4 5 137 42 155 44 7 1 17 -16 22 -36z
m-1113 -98 l31 -115 -41 -11 c-23 -6 -80 -21 -128 -34 -48 -13 -89 -20 -92
-17 -8 14 -59 222 -55 225 5 4 230 65 244 66 6 1 24 -51 41 -114z m913 48 c31
-120 51 -203 51 -216 0 -9 -27 -22 -74 -35 -41 -12 -79 -22 -84 -22 -10 0 -78
257 -71 265 4 3 144 42 161 44 4 1 12 -16 17 -36z m1185 -122 c29 -113 36
-155 28 -160 -24 -15 -164 -43 -171 -35 -12 14 -82 296 -75 303 8 8 157 50
169 47 6 -2 28 -71 49 -155z m-3460 122 c24 -89 58 -234 55 -236 -2 -2 -83
-24 -180 -49 -161 -42 -178 -44 -193 -30 -12 13 -22 14 -50 5 -33 -10 -36 -9
-78 36 -24 25 -57 63 -72 84 -22 31 -25 38 -12 42 52 16 51 16 36 25 -8 5 -11
12 -7 16 7 8 450 121 479 123 9 1 19 -7 22 -16z m1077 -123 c16 -62 28 -114
27 -115 -11 -7 -211 -55 -215 -51 -3 2 -17 54 -33 115 l-28 111 42 11 c22 5
70 18 106 28 36 10 66 17 68 16 2 -2 16 -53 33 -115z m1023 -25 c19 -71 34
-131 32 -133 -5 -5 -179 -52 -182 -49 -7 8 -64 251 -61 260 3 9 165 58 174 53
1 -1 18 -60 37 -131z m1148 -25 c21 -80 36 -149 35 -155 -4 -11 -176 -55 -181
-46 -4 5 -76 274 -79 295 -2 10 149 56 172 53 10 -1 27 -50 53 -147z m-2417
-10 c15 -61 25 -113 22 -116 -7 -8 -257 -74 -278 -74 -12 0 -23 26 -43 103
-14 56 -26 107 -26 113 0 10 236 79 281 83 13 1 23 -23 44 -109z m1035 68 c6
-24 22 -83 36 -132 13 -50 23 -91 21 -92 -7 -6 -199 -55 -203 -51 -8 7 -74
261 -69 265 4 5 174 50 192 51 7 1 17 -18 23 -41z m1165 -103 c20 -77 38 -147
41 -156 3 -12 -16 -20 -92 -38 -52 -13 -96 -22 -98 -20 -6 8 -78 301 -74 304
3 3 181 52 184 51 1 -1 18 -64 39 -141z m-1374 -50 l35 -135 -50 -14 c-101
-29 -138 -37 -143 -33 -9 9 -72 261 -67 266 5 6 158 48 179 50 6 1 27 -60 46
-134z m1162 -25 c20 -79 34 -146 32 -148 -4 -5 -187 -52 -201 -52 -12 0 -89
289 -80 298 10 10 201 59 207 53 3 -3 22 -71 42 -151z m-2319 38 c15 -57 30
-111 32 -120 3 -11 0 -18 -9 -18 -8 0 -92 -20 -186 -45 -94 -25 -175 -45 -179
-45 -10 0 -67 218 -60 226 4 4 333 95 369 103 3 0 18 -45 33 -101z m935 -69
c20 -75 30 -134 25 -138 -9 -9 -245 -74 -249 -69 -2 2 -18 64 -38 139 l-34
136 116 31 c64 17 123 31 131 31 11 1 24 -33 49 -130z m2512 112 c-13 -10 -21
-23 -17 -30 4 -6 2 -11 -5 -11 -6 0 -9 -8 -6 -20 3 -10 -1 -37 -9 -59 -7 -22
-11 -47 -8 -55 3 -8 -1 -28 -9 -45 -8 -16 -11 -35 -7 -42 5 -7 4 -23 0 -35 -6
-15 -5 -24 3 -28 9 -3 8 -7 -3 -15 -22 -16 -28 -13 -32 12 -2 14 -10 22 -22
22 -17 0 -25 19 -53 134 -18 74 -32 135 -30 137 4 4 191 51 207 53 10 0 6 -6
-9 -18z m-1370 -144 l37 -147 -37 -9 c-99 -26 -132 -33 -137 -28 -6 6 -74 272
-74 287 0 8 149 49 165 46 5 -1 26 -68 46 -149z m-201 -45 c17 -73 30 -139 27
-145 -7 -18 -149 -51 -157 -36 -6 9 -71 248 -74 273 -1 10 156 55 165 47 4 -3
21 -66 39 -139z m1381 -5 c32 -131 33 -140 16 -152 -14 -10 -15 -18 -7 -39 10
-28 14 -23 -64 -70 -26 -17 -36 -12 -36 16 0 14 -6 18 -22 16 -20 -3 -24 8
-59 139 -21 79 -40 155 -43 170 -6 28 -6 28 81 49 49 11 91 18 94 15 4 -3 22
-68 40 -144z m-3681 101 c6 -24 20 -74 30 -113 10 -38 17 -71 16 -73 -2 -1
-41 -13 -87 -26 -77 -21 -87 -22 -108 -8 -19 13 -29 14 -53 4 -28 -10 -35 -9
-68 16 -45 32 -120 100 -120 107 0 3 11 5 23 5 30 0 40 10 26 26 -8 10 -8 15
2 19 17 6 311 83 321 84 4 1 12 -18 18 -41z m1040 35 c0 -5 16 -66 34 -138 19
-71 33 -131 32 -133 -9 -8 -217 -59 -220 -53 -8 12 -69 271 -65 274 4 3 199
55 212 56 4 1 7 -2 7 -6z m2440 -217 c39 -152 42 -169 27 -177 -12 -7 -15 -18
-11 -39 6 -26 2 -31 -45 -54 -27 -14 -53 -26 -56 -26 -3 0 -5 12 -5 26 0 20
-4 25 -22 22 -20 -3 -25 10 -71 185 -27 104 -47 191 -43 194 10 10 171 50 177
44 3 -3 25 -82 49 -175z m-1406 152 c30 -107 66 -261 62 -265 -6 -6 -147 -43
-166 -43 -11 0 -24 35 -49 133 -18 72 -33 137 -33 142 0 9 128 52 163 54 9 1
19 -9 23 -21z m-1248 -138 c18 -74 32 -135 31 -136 -5 -4 -269 -74 -280 -74
-7 0 -26 51 -45 125 -18 69 -35 131 -38 138 -3 10 31 23 128 50 73 19 142 35
152 34 17 -2 25 -24 52 -137z m2445 -80 c27 -102 48 -191 49 -197 0 -7 -7 -13
-16 -13 -13 0 -15 -7 -10 -34 7 -36 12 -32 -91 -73 -6 -2 -14 9 -18 26 -5 26
-9 29 -24 21 -17 -8 -23 9 -70 191 -29 111 -54 206 -57 213 -4 12 143 56 175
53 10 -2 30 -62 62 -187z m-1383 63 c48 -179 52 -162 -53 -189 -49 -13 -95
-24 -101 -24 -10 0 -70 202 -76 259 -3 22 4 26 77 46 129 36 118 43 153 -92z
m-1385 -60 c20 -76 33 -141 29 -144 -4 -4 -67 -23 -140 -43 -123 -33 -135 -35
-161 -21 -16 8 -31 12 -33 9 -3 -2 -20 9 -38 26 -26 24 -37 47 -55 120 l-23
89 32 10 c17 5 87 23 156 41 69 17 136 36 150 40 14 5 30 9 36 9 6 1 27 -61
47 -136z m2559 -75 c50 -193 54 -214 39 -221 -12 -6 -16 -17 -13 -38 2 -16 3
-29 0 -29 -2 0 -27 -9 -56 -19 l-53 -20 -6 29 c-4 22 -11 29 -26 27 -18 -2
-25 17 -74 203 -29 113 -54 211 -55 219 -3 11 87 41 183 60 3 0 30 -95 61
-211z m-1401 52 l37 -140 -37 -9 c-115 -30 -155 -40 -157 -38 -8 8 -73 271
-68 276 7 7 152 49 174 50 11 1 25 -36 51 -139z m1138 63 c5 -21 31 -119 56
-217 42 -161 45 -180 30 -189 -12 -6 -14 -17 -10 -37 6 -27 4 -29 -52 -45 -32
-9 -65 -18 -74 -21 -12 -3 -18 4 -22 25 -5 23 -10 28 -25 24 -17 -4 -25 18
-75 219 -31 122 -54 224 -52 226 5 6 177 50 197 51 12 1 20 -11 27 -36z
m-1361 -111 c18 -70 32 -132 32 -138 0 -11 -248 -79 -256 -71 -2 2 -20 63 -38
136 -25 94 -31 133 -23 136 36 13 224 64 237 64 11 1 24 -33 48 -127z m-1360
18 c17 -70 16 -101 -3 -70 -14 22 -23 8 -13 -21 6 -16 8 -32 5 -35 -5 -5 -86
40 -157 89 l-45 31 40 11 c35 11 37 13 20 23 -25 13 -22 15 45 35 88 25 85 26
108 -63z m2523 -154 c50 -201 54 -225 39 -229 -13 -3 -16 -12 -13 -34 5 -29 3
-30 -47 -40 l-51 -10 -6 29 c-4 22 -11 28 -26 26 -18 -3 -25 18 -73 216 -30
120 -52 221 -50 223 6 6 136 41 156 42 12 1 28 -52 71 -223z m-1481 177 c0 -5
15 -65 33 -135 l34 -127 -109 -27 c-62 -15 -113 -23 -117 -18 -7 7 -60 213
-65 248 0 5 40 22 89 37 93 28 135 35 135 22z m1230 -18 c0 -8 23 -106 50
-217 46 -186 49 -204 34 -215 -11 -8 -14 -20 -10 -37 5 -19 2 -26 -8 -26 -7 0
-27 -3 -43 -6 -27 -5 -31 -3 -37 20 -4 17 -13 26 -26 26 -10 0 -21 8 -24 18
-35 118 -106 405 -101 410 7 8 122 40 148 41 9 1 17 -6 17 -14z m-1452 -167
c18 -72 29 -134 25 -138 -4 -4 -49 -17 -100 -30 -89 -21 -94 -21 -142 -5 -49
16 -52 19 -66 68 -27 97 -38 148 -32 154 5 4 234 72 277 82 3 0 20 -58 38
-131z m1309 -78 c50 -188 53 -205 37 -217 -11 -8 -15 -20 -10 -37 5 -22 3 -26
-16 -26 -13 0 -39 -3 -59 -6 -34 -6 -36 -4 -42 25 -5 22 -12 31 -26 31 -23 0
-24 3 -82 228 -23 89 -39 165 -36 168 9 10 141 43 161 41 17 -2 28 -33 73
-207z m-258 123 c40 -152 91 -349 91 -355 0 -5 -7 -8 -16 -8 -13 0 -15 -7 -10
-30 5 -28 4 -30 -27 -30 -17 0 -49 -3 -69 -6 -36 -6 -38 -5 -44 25 -5 23 -12
31 -28 31 -19 0 -26 17 -68 178 -25 97 -44 179 -43 180 4 5 175 50 192 51 7 1
17 -16 22 -36z m-1379 -85 c12 -44 24 -88 27 -96 5 -11 1 -13 -17 -7 -20 7
-22 5 -15 -25 7 -30 6 -32 -16 -25 -44 14 -264 106 -273 115 -5 5 7 11 28 15
35 7 51 25 21 25 -8 0 -15 4 -15 9 0 6 196 66 231 70 4 1 17 -36 29 -81z
m1181 -110 c43 -163 45 -173 27 -176 -16 -3 -18 -9 -13 -33 l7 -29 -65 0 c-64
0 -65 0 -70 30 -5 21 -12 30 -26 30 -15 0 -23 11 -32 43 -6 23 -24 91 -40 151
-16 60 -28 110 -27 111 5 4 163 43 178 44 12 1 27 -40 61 -171z m-227 -30 c20
-75 36 -139 36 -142 0 -3 -9 -6 -20 -6 -16 0 -18 -4 -10 -24 5 -13 7 -26 5
-28 -5 -5 -184 9 -201 16 -8 3 -14 15 -14 26 0 12 -9 24 -24 30 -19 7 -28 24
-44 87 -37 135 -46 122 98 158 69 18 128 29 131 26 4 -3 23 -67 43 -143z
m-311 0 c10 -40 20 -83 23 -95 5 -17 2 -23 -11 -23 -14 0 -16 -6 -12 -29 l6
-28 -82 13 c-45 8 -85 14 -89 14 -5 0 -8 9 -8 19 0 32 -11 51 -31 51 -12 0
-21 11 -28 38 -16 56 -14 60 27 71 20 5 62 16 92 25 95 25 94 25 113 -56z
m-269 -5 c2 -10 7 -29 11 -41 6 -21 4 -23 -14 -17 -19 6 -20 3 -14 -26 l6 -32
-39 7 c-21 4 -64 14 -94 23 l-54 16 54 17 55 17 -35 8 -35 8 65 18 c84 22 88
22 94 2z"/>
</g>
</svg>
